<mxfile host="app.diagrams.net" agent="Mozilla/5.0 (Windows NT 10.0; Win64; x64) AppleWebKit/537.36 (KHTML, like Gecko) Chrome/141.0.0.0 Safari/537.36" version="28.2.6">
  <diagram name="Trang-1" id="6Rfmhx4rSNbf7fr2o9IV">
    <mxGraphModel grid="1" page="1" gridSize="10" guides="1" tooltips="1" connect="1" arrows="1" fold="1" pageScale="1" pageWidth="850" pageHeight="1100" math="0" shadow="0">
      <root>
        <mxCell id="0" />
        <mxCell id="1" parent="0" />
        <mxCell id="PJG6s3csiKZK7TlWtAWH-1" value="" style="rounded=0;whiteSpace=wrap;html=1;dashed=1;" vertex="1" parent="1">
          <mxGeometry x="320" y="320" width="1151.75" height="630" as="geometry" />
        </mxCell>
        <mxCell id="PJG6s3csiKZK7TlWtAWH-2" value="" style="rounded=0;whiteSpace=wrap;html=1;dashed=1;" vertex="1" parent="1">
          <mxGeometry x="340" y="480" width="1111.75" height="420" as="geometry" />
        </mxCell>
        <mxCell id="PJG6s3csiKZK7TlWtAWH-3" value="" style="rounded=0;whiteSpace=wrap;html=1;dashed=1;" vertex="1" parent="1">
          <mxGeometry x="401.75" y="690" width="1023.75" height="140" as="geometry" />
        </mxCell>
        <mxCell id="PJG6s3csiKZK7TlWtAWH-4" value="Hệ thống WebQuanAo&lt;div&gt;[system]&lt;/div&gt;" style="text;html=1;align=center;verticalAlign=middle;whiteSpace=wrap;rounded=0;" vertex="1" parent="1">
          <mxGeometry x="620" y="340" width="181.75" height="30" as="geometry" />
        </mxCell>
        <mxCell id="PJG6s3csiKZK7TlWtAWH-5" value="&lt;b&gt;&lt;font style=&quot;font-size: 14px; color: rgb(26, 26, 26);&quot;&gt;API&lt;/font&gt;&lt;/b&gt;&lt;div&gt;&lt;font style=&quot;color: rgb(26, 26, 26);&quot;&gt;[Node.js/Express]&lt;/font&gt;&lt;/div&gt;" style="rounded=0;whiteSpace=wrap;html=1;fillColor=#3399FF;strokeColor=#36393d;" vertex="1" parent="1">
          <mxGeometry x="821.75" y="500" width="120" height="50" as="geometry" />
        </mxCell>
        <mxCell id="PJG6s3csiKZK7TlWtAWH-6" value="" style="edgeStyle=orthogonalEdgeStyle;rounded=0;orthogonalLoop=1;jettySize=auto;html=1;" edge="1" parent="1" source="PJG6s3csiKZK7TlWtAWH-7" target="PJG6s3csiKZK7TlWtAWH-8">
          <mxGeometry relative="1" as="geometry" />
        </mxCell>
        <mxCell id="PJG6s3csiKZK7TlWtAWH-7" value="&lt;div&gt;Đăng ký [Node.js/Express]&lt;/div&gt;" style="rounded=0;whiteSpace=wrap;html=1;fillColor=#3399FF;" vertex="1" parent="1">
          <mxGeometry x="571.75" y="620" width="100" height="50" as="geometry" />
        </mxCell>
        <mxCell id="PJG6s3csiKZK7TlWtAWH-8" value="Đăng nhập&amp;nbsp;&lt;br&gt;&lt;div&gt;[Node.js/Express]&lt;/div&gt;" style="rounded=0;whiteSpace=wrap;html=1;fillColor=#3399FF;" vertex="1" parent="1">
          <mxGeometry x="721.75" y="620" width="100" height="50" as="geometry" />
        </mxCell>
        <mxCell id="PJG6s3csiKZK7TlWtAWH-9" value="Đơn hàng&lt;br&gt;&lt;div&gt;[Node.js/Express]&lt;/div&gt;" style="rounded=0;whiteSpace=wrap;html=1;fillColor=#3399FF;" vertex="1" parent="1">
          <mxGeometry x="880.5" y="620" width="100" height="50" as="geometry" />
        </mxCell>
        <mxCell id="PJG6s3csiKZK7TlWtAWH-10" value="Quản trị&lt;div&gt;[Node.js/Express]&lt;/div&gt;" style="rounded=0;whiteSpace=wrap;html=1;fillColor=#3399FF;" vertex="1" parent="1">
          <mxGeometry x="1016.75" y="620" width="100" height="50" as="geometry" />
        </mxCell>
        <mxCell id="PJG6s3csiKZK7TlWtAWH-11" value="Thanh toán&lt;div&gt;[Node.js/Express]&lt;/div&gt;" style="rounded=0;whiteSpace=wrap;html=1;fillColor=#3399FF;" vertex="1" parent="1">
          <mxGeometry x="1176.75" y="620" width="100" height="50" as="geometry" />
        </mxCell>
        <mxCell id="PJG6s3csiKZK7TlWtAWH-12" value="" style="endArrow=classic;html=1;rounded=0;entryX=0.57;entryY=0.068;entryDx=0;entryDy=0;entryPerimeter=0;exitX=0;exitY=1;exitDx=0;exitDy=0;" edge="1" parent="1" source="PJG6s3csiKZK7TlWtAWH-5" target="PJG6s3csiKZK7TlWtAWH-7">
          <mxGeometry width="50" height="50" relative="1" as="geometry">
            <mxPoint x="881.75" y="640" as="sourcePoint" />
            <mxPoint x="931.75" y="590" as="targetPoint" />
          </mxGeometry>
        </mxCell>
        <mxCell id="PJG6s3csiKZK7TlWtAWH-13" value="" style="endArrow=classic;html=1;rounded=0;entryX=0.5;entryY=0;entryDx=0;entryDy=0;exitX=0.25;exitY=1;exitDx=0;exitDy=0;" edge="1" parent="1" source="PJG6s3csiKZK7TlWtAWH-5" target="PJG6s3csiKZK7TlWtAWH-8">
          <mxGeometry width="50" height="50" relative="1" as="geometry">
            <mxPoint x="881.75" y="640" as="sourcePoint" />
            <mxPoint x="931.75" y="590" as="targetPoint" />
          </mxGeometry>
        </mxCell>
        <mxCell id="PJG6s3csiKZK7TlWtAWH-14" value="" style="endArrow=classic;html=1;rounded=0;entryX=0.5;entryY=0;entryDx=0;entryDy=0;exitX=0.5;exitY=1;exitDx=0;exitDy=0;" edge="1" parent="1" source="PJG6s3csiKZK7TlWtAWH-5" target="PJG6s3csiKZK7TlWtAWH-9">
          <mxGeometry width="50" height="50" relative="1" as="geometry">
            <mxPoint x="881.75" y="640" as="sourcePoint" />
            <mxPoint x="931.75" y="590" as="targetPoint" />
          </mxGeometry>
        </mxCell>
        <mxCell id="PJG6s3csiKZK7TlWtAWH-15" value="" style="endArrow=classic;html=1;rounded=0;entryX=0.5;entryY=0;entryDx=0;entryDy=0;exitX=0.75;exitY=1;exitDx=0;exitDy=0;" edge="1" parent="1" source="PJG6s3csiKZK7TlWtAWH-5" target="PJG6s3csiKZK7TlWtAWH-10">
          <mxGeometry width="50" height="50" relative="1" as="geometry">
            <mxPoint x="881.75" y="640" as="sourcePoint" />
            <mxPoint x="931.75" y="590" as="targetPoint" />
          </mxGeometry>
        </mxCell>
        <mxCell id="PJG6s3csiKZK7TlWtAWH-16" value="" style="endArrow=classic;html=1;rounded=0;entryX=0.5;entryY=0;entryDx=0;entryDy=0;exitX=1;exitY=1;exitDx=0;exitDy=0;" edge="1" parent="1" source="PJG6s3csiKZK7TlWtAWH-5" target="PJG6s3csiKZK7TlWtAWH-11">
          <mxGeometry width="50" height="50" relative="1" as="geometry">
            <mxPoint x="881.75" y="640" as="sourcePoint" />
            <mxPoint x="931.75" y="590" as="targetPoint" />
          </mxGeometry>
        </mxCell>
        <mxCell id="PJG6s3csiKZK7TlWtAWH-17" value="Đăng ký" style="strokeWidth=2;html=1;shape=mxgraph.flowchart.database;whiteSpace=wrap;fillColor=#3399FF;" vertex="1" parent="1">
          <mxGeometry x="441.75" y="740" width="130" height="60" as="geometry" />
        </mxCell>
        <mxCell id="PJG6s3csiKZK7TlWtAWH-18" value="Đăng nhập" style="strokeWidth=2;html=1;shape=mxgraph.flowchart.database;whiteSpace=wrap;fillColor=#3399FF;" vertex="1" parent="1">
          <mxGeometry x="611.75" y="740" width="130" height="60" as="geometry" />
        </mxCell>
        <mxCell id="PJG6s3csiKZK7TlWtAWH-19" value="Đơn hàng" style="strokeWidth=2;html=1;shape=mxgraph.flowchart.database;whiteSpace=wrap;fillColor=#3399FF;" vertex="1" parent="1">
          <mxGeometry x="771.75" y="740" width="130" height="60" as="geometry" />
        </mxCell>
        <mxCell id="PJG6s3csiKZK7TlWtAWH-20" value="Quản trị" style="strokeWidth=2;html=1;shape=mxgraph.flowchart.database;whiteSpace=wrap;fillColor=#3399FF;" vertex="1" parent="1">
          <mxGeometry x="931.75" y="740" width="130" height="60" as="geometry" />
        </mxCell>
        <mxCell id="PJG6s3csiKZK7TlWtAWH-21" value="Thanh toán" style="strokeWidth=2;html=1;shape=mxgraph.flowchart.database;whiteSpace=wrap;fillColor=#3399FF;" vertex="1" parent="1">
          <mxGeometry x="1081.75" y="740" width="130" height="60" as="geometry" />
        </mxCell>
        <mxCell id="PJG6s3csiKZK7TlWtAWH-22" value="" style="endArrow=classic;html=1;rounded=0;entryX=0.5;entryY=0;entryDx=0;entryDy=0;entryPerimeter=0;exitX=0.5;exitY=1;exitDx=0;exitDy=0;curved=1;" edge="1" parent="1" source="PJG6s3csiKZK7TlWtAWH-8" target="PJG6s3csiKZK7TlWtAWH-18">
          <mxGeometry width="50" height="50" relative="1" as="geometry">
            <mxPoint x="881.75" y="640" as="sourcePoint" />
            <mxPoint x="931.75" y="590" as="targetPoint" />
            <Array as="points">
              <mxPoint x="661.75" y="680" />
            </Array>
          </mxGeometry>
        </mxCell>
        <mxCell id="PJG6s3csiKZK7TlWtAWH-23" value="" style="endArrow=classic;html=1;rounded=0;entryX=0.445;entryY=0.068;entryDx=0;entryDy=0;entryPerimeter=0;exitX=0.5;exitY=1;exitDx=0;exitDy=0;curved=1;" edge="1" parent="1" source="PJG6s3csiKZK7TlWtAWH-10" target="PJG6s3csiKZK7TlWtAWH-20">
          <mxGeometry width="50" height="50" relative="1" as="geometry">
            <mxPoint x="881.75" y="640" as="sourcePoint" />
            <mxPoint x="931.75" y="590" as="targetPoint" />
            <Array as="points">
              <mxPoint x="891.75" y="700" />
            </Array>
          </mxGeometry>
        </mxCell>
        <mxCell id="PJG6s3csiKZK7TlWtAWH-24" value="" style="whiteSpace=wrap;html=1;strokeColor=#006EAF;fillColor=#1ba1e2;fontColor=#ffffff;" vertex="1" parent="1">
          <mxGeometry x="805" y="360" width="158" height="80" as="geometry" />
        </mxCell>
        <mxCell id="PJG6s3csiKZK7TlWtAWH-25" value="SPA" style="text;html=1;align=center;verticalAlign=middle;whiteSpace=wrap;rounded=0;fontColor=#FFFFFF;" vertex="1" parent="1">
          <mxGeometry x="837.5" y="330" width="105" height="30" as="geometry" />
        </mxCell>
        <mxCell id="PJG6s3csiKZK7TlWtAWH-26" value="&lt;font style=&quot;color: rgb(26, 26, 26);&quot;&gt;[SPA(Rect.js]&lt;/font&gt;" style="text;html=1;align=center;verticalAlign=middle;whiteSpace=wrap;rounded=0;" vertex="1" parent="1">
          <mxGeometry x="831.75" y="385" width="100" height="30" as="geometry" />
        </mxCell>
        <mxCell id="PJG6s3csiKZK7TlWtAWH-27" value="" style="edgeStyle=orthogonalEdgeStyle;rounded=0;orthogonalLoop=1;jettySize=auto;html=1;" edge="1" parent="1" source="PJG6s3csiKZK7TlWtAWH-28" target="PJG6s3csiKZK7TlWtAWH-5">
          <mxGeometry relative="1" as="geometry" />
        </mxCell>
        <mxCell id="PJG6s3csiKZK7TlWtAWH-28" value="&lt;font style=&quot;font-size: 14px; color: rgb(26, 26, 26);&quot;&gt;Giao diện cho hệ thống&lt;/font&gt;" style="text;html=1;align=center;verticalAlign=middle;whiteSpace=wrap;rounded=0;" vertex="1" parent="1">
          <mxGeometry x="800.5" y="412" width="162.5" height="33" as="geometry" />
        </mxCell>
        <mxCell id="PJG6s3csiKZK7TlWtAWH-29" value="&lt;font style=&quot;font-size: 16px; color: rgb(26, 26, 26);&quot;&gt;&lt;b style=&quot;&quot;&gt;SPA&lt;/b&gt;&lt;/font&gt;" style="text;html=1;align=center;verticalAlign=middle;whiteSpace=wrap;rounded=0;" vertex="1" parent="1">
          <mxGeometry x="820.5" y="360" width="131" height="30" as="geometry" />
        </mxCell>
        <mxCell id="PJG6s3csiKZK7TlWtAWH-30" value="&lt;font style=&quot;font-size: 10px;&quot;&gt;Users [HTTP]&lt;/font&gt;" style="text;html=1;align=center;verticalAlign=middle;whiteSpace=wrap;rounded=0;" vertex="1" parent="1">
          <mxGeometry x="882.5" y="445" width="60" height="30" as="geometry" />
        </mxCell>
        <mxCell id="PJG6s3csiKZK7TlWtAWH-31" value="&lt;font&gt;&amp;nbsp;WebQuanAo API&lt;/font&gt;" style="text;html=1;align=center;verticalAlign=middle;whiteSpace=wrap;rounded=0;" vertex="1" parent="1">
          <mxGeometry x="631.75" y="490" width="130" height="30" as="geometry" />
        </mxCell>
        <mxCell id="PJG6s3csiKZK7TlWtAWH-32" value="&lt;font style=&quot;font-size: 11px;&quot;&gt;[Schema&lt;/font&gt;&lt;font style=&quot;font-size: 11px;&quot;&gt;]&lt;/font&gt;" style="text;html=1;align=center;verticalAlign=middle;whiteSpace=wrap;rounded=0;" vertex="1" parent="1">
          <mxGeometry x="471.75" y="770" width="60" height="30" as="geometry" />
        </mxCell>
        <mxCell id="PJG6s3csiKZK7TlWtAWH-33" value="&lt;font style=&quot;font-size: 11px;&quot;&gt;[Schema&lt;/font&gt;&lt;font style=&quot;font-size: 11px;&quot;&gt;]&lt;/font&gt;" style="text;html=1;align=center;verticalAlign=middle;whiteSpace=wrap;rounded=0;" vertex="1" parent="1">
          <mxGeometry x="646.75" y="770" width="60" height="30" as="geometry" />
        </mxCell>
        <mxCell id="PJG6s3csiKZK7TlWtAWH-34" value="&lt;font style=&quot;font-size: 11px;&quot;&gt;[Schema&lt;/font&gt;&lt;font style=&quot;font-size: 11px;&quot;&gt;]&lt;/font&gt;" style="text;html=1;align=center;verticalAlign=middle;whiteSpace=wrap;rounded=0;" vertex="1" parent="1">
          <mxGeometry x="806.75" y="770" width="60" height="30" as="geometry" />
        </mxCell>
        <mxCell id="PJG6s3csiKZK7TlWtAWH-35" value="&lt;font style=&quot;font-size: 11px;&quot;&gt;[Schema&lt;/font&gt;&lt;font style=&quot;font-size: 11px;&quot;&gt;]&lt;/font&gt;" style="text;html=1;align=center;verticalAlign=middle;whiteSpace=wrap;rounded=0;" vertex="1" parent="1">
          <mxGeometry x="966.75" y="770" width="60" height="30" as="geometry" />
        </mxCell>
        <mxCell id="PJG6s3csiKZK7TlWtAWH-36" value="&lt;font style=&quot;font-size: 11px;&quot;&gt;[Schema&lt;/font&gt;&lt;font style=&quot;font-size: 11px;&quot;&gt;]&lt;/font&gt;" style="text;html=1;align=center;verticalAlign=middle;whiteSpace=wrap;rounded=0;" vertex="1" parent="1">
          <mxGeometry x="1116.75" y="770" width="60" height="30" as="geometry" />
        </mxCell>
        <mxCell id="PJG6s3csiKZK7TlWtAWH-37" value="&lt;font style=&quot;font-size: 10px;&quot;&gt;Store/retrieve&lt;/font&gt;" style="text;html=1;align=center;verticalAlign=middle;whiteSpace=wrap;rounded=0;" vertex="1" parent="1">
          <mxGeometry x="476.75" y="680" width="60" height="30" as="geometry" />
        </mxCell>
        <mxCell id="PJG6s3csiKZK7TlWtAWH-38" value="&lt;font style=&quot;font-size: 10px;&quot;&gt;Store/retrieve&lt;/font&gt;" style="text;html=1;align=center;verticalAlign=middle;whiteSpace=wrap;rounded=0;" vertex="1" parent="1">
          <mxGeometry x="691.75" y="690" width="60" height="30" as="geometry" />
        </mxCell>
        <mxCell id="PJG6s3csiKZK7TlWtAWH-39" value="&lt;font style=&quot;font-size: 10px;&quot;&gt;Store/retrieve&lt;/font&gt;" style="text;html=1;align=center;verticalAlign=middle;whiteSpace=wrap;rounded=0;" vertex="1" parent="1">
          <mxGeometry x="820.5" y="690" width="60" height="30" as="geometry" />
        </mxCell>
        <mxCell id="PJG6s3csiKZK7TlWtAWH-40" value="&lt;font style=&quot;font-size: 10px;&quot;&gt;Store/retrieve&lt;/font&gt;" style="text;html=1;align=center;verticalAlign=middle;whiteSpace=wrap;rounded=0;" vertex="1" parent="1">
          <mxGeometry x="971.75" y="690" width="60" height="30" as="geometry" />
        </mxCell>
        <mxCell id="PJG6s3csiKZK7TlWtAWH-41" value="&lt;font style=&quot;font-size: 10px;&quot;&gt;Store/retrieve&lt;/font&gt;" style="text;html=1;align=center;verticalAlign=middle;whiteSpace=wrap;rounded=0;" vertex="1" parent="1">
          <mxGeometry x="1101.75" y="690" width="100" height="30" as="geometry" />
        </mxCell>
        <mxCell id="PJG6s3csiKZK7TlWtAWH-42" value="&lt;font style=&quot;font-size: 11px;&quot;&gt;Uses&lt;/font&gt;" style="text;html=1;align=center;verticalAlign=middle;whiteSpace=wrap;rounded=0;" vertex="1" parent="1">
          <mxGeometry x="671.75" y="560" width="60" height="30" as="geometry" />
        </mxCell>
        <mxCell id="PJG6s3csiKZK7TlWtAWH-43" value="&lt;font style=&quot;font-size: 11px;&quot;&gt;Uses&lt;/font&gt;" style="text;html=1;align=center;verticalAlign=middle;whiteSpace=wrap;rounded=0;" vertex="1" parent="1">
          <mxGeometry x="777.5" y="560" width="60" height="30" as="geometry" />
        </mxCell>
        <mxCell id="PJG6s3csiKZK7TlWtAWH-44" value="&lt;font style=&quot;font-size: 11px;&quot;&gt;Uses&lt;/font&gt;" style="text;html=1;align=center;verticalAlign=middle;whiteSpace=wrap;rounded=0;" vertex="1" parent="1">
          <mxGeometry x="851.75" y="570" width="60" height="30" as="geometry" />
        </mxCell>
        <mxCell id="PJG6s3csiKZK7TlWtAWH-45" value="&lt;font style=&quot;font-size: 11px;&quot;&gt;Uses&lt;/font&gt;" style="text;html=1;align=center;verticalAlign=middle;whiteSpace=wrap;rounded=0;" vertex="1" parent="1">
          <mxGeometry x="921.75" y="570" width="60" height="30" as="geometry" />
        </mxCell>
        <mxCell id="PJG6s3csiKZK7TlWtAWH-46" value="&lt;font style=&quot;font-size: 11px;&quot;&gt;Uses&lt;/font&gt;" style="text;html=1;align=center;verticalAlign=middle;whiteSpace=wrap;rounded=0;" vertex="1" parent="1">
          <mxGeometry x="1011.75" y="550" width="60" height="30" as="geometry" />
        </mxCell>
        <mxCell id="PJG6s3csiKZK7TlWtAWH-47" value="" style="endArrow=classic;html=1;rounded=0;exitX=1;exitY=0.75;exitDx=0;exitDy=0;entryX=0.5;entryY=0;entryDx=0;entryDy=0;" edge="1" parent="1" source="PJG6s3csiKZK7TlWtAWH-5" target="PJG6s3csiKZK7TlWtAWH-48">
          <mxGeometry width="50" height="50" relative="1" as="geometry">
            <mxPoint x="1211.75" y="590" as="sourcePoint" />
            <mxPoint x="1401.75" y="620" as="targetPoint" />
          </mxGeometry>
        </mxCell>
        <mxCell id="PJG6s3csiKZK7TlWtAWH-48" value="Emails&lt;div&gt;[Node.js/Express]&lt;/div&gt;" style="rounded=0;whiteSpace=wrap;html=1;fillColor=#3399FF;" vertex="1" parent="1">
          <mxGeometry x="1311.75" y="620" width="100" height="50" as="geometry" />
        </mxCell>
        <mxCell id="PJG6s3csiKZK7TlWtAWH-49" value="&lt;font style=&quot;font-size: 10px;&quot;&gt;Store/retrieve&lt;/font&gt;" style="text;html=1;align=center;verticalAlign=middle;whiteSpace=wrap;rounded=0;" vertex="1" parent="1">
          <mxGeometry x="1261.75" y="700" width="100" height="30" as="geometry" />
        </mxCell>
        <mxCell id="PJG6s3csiKZK7TlWtAWH-50" value="" style="endArrow=classic;html=1;rounded=0;curved=1;exitX=0.25;exitY=1;exitDx=0;exitDy=0;entryX=0.142;entryY=0.016;entryDx=0;entryDy=0;entryPerimeter=0;" edge="1" parent="1" source="PJG6s3csiKZK7TlWtAWH-48" target="PJG6s3csiKZK7TlWtAWH-51">
          <mxGeometry width="50" height="50" relative="1" as="geometry">
            <mxPoint x="1391.75" y="680" as="sourcePoint" />
            <mxPoint x="1301.75" y="740" as="targetPoint" />
            <Array as="points">
              <mxPoint x="1291.75" y="680" />
              <mxPoint x="1271.75" y="710" />
              <mxPoint x="1281.75" y="730" />
            </Array>
          </mxGeometry>
        </mxCell>
        <mxCell id="PJG6s3csiKZK7TlWtAWH-51" value="Emails (SMTP)" style="strokeWidth=2;html=1;shape=mxgraph.flowchart.database;whiteSpace=wrap;fillColor=#3399FF;" vertex="1" parent="1">
          <mxGeometry x="1281.75" y="740" width="130" height="60" as="geometry" />
        </mxCell>
        <mxCell id="PJG6s3csiKZK7TlWtAWH-52" value="&lt;font style=&quot;font-size: 11px;&quot;&gt;[Schema&lt;/font&gt;&lt;font style=&quot;font-size: 11px;&quot;&gt;]&lt;/font&gt;" style="text;html=1;align=center;verticalAlign=middle;whiteSpace=wrap;rounded=0;" vertex="1" parent="1">
          <mxGeometry x="1316.75" y="770" width="60" height="30" as="geometry" />
        </mxCell>
        <mxCell id="PJG6s3csiKZK7TlWtAWH-53" value="" style="endArrow=classic;html=1;rounded=0;entryX=0.5;entryY=0;entryDx=0;entryDy=0;entryPerimeter=0;exitX=0;exitY=0.75;exitDx=0;exitDy=0;curved=1;" edge="1" parent="1" source="PJG6s3csiKZK7TlWtAWH-9">
          <mxGeometry width="50" height="50" relative="1" as="geometry">
            <mxPoint x="921.75" y="670" as="sourcePoint" />
            <mxPoint x="806.75" y="740" as="targetPoint" />
            <Array as="points">
              <mxPoint x="791.75" y="680" />
            </Array>
          </mxGeometry>
        </mxCell>
        <mxCell id="PJG6s3csiKZK7TlWtAWH-54" value="" style="endArrow=classic;html=1;rounded=0;exitX=0.5;exitY=1;exitDx=0;exitDy=0;curved=1;" edge="1" parent="1" target="PJG6s3csiKZK7TlWtAWH-17">
          <mxGeometry width="50" height="50" relative="1" as="geometry">
            <mxPoint x="566.75" y="660" as="sourcePoint" />
            <mxPoint x="451.75" y="730" as="targetPoint" />
            <Array as="points">
              <mxPoint x="436.75" y="670" />
            </Array>
          </mxGeometry>
        </mxCell>
        <mxCell id="PJG6s3csiKZK7TlWtAWH-55" value="" style="endArrow=classic;html=1;rounded=0;entryX=0.385;entryY=0.031;entryDx=0;entryDy=0;entryPerimeter=0;exitX=0;exitY=0.75;exitDx=0;exitDy=0;curved=1;" edge="1" parent="1" source="PJG6s3csiKZK7TlWtAWH-11" target="PJG6s3csiKZK7TlWtAWH-21">
          <mxGeometry width="50" height="50" relative="1" as="geometry">
            <mxPoint x="1161.75" y="700" as="sourcePoint" />
            <mxPoint x="1046.75" y="770" as="targetPoint" />
            <Array as="points">
              <mxPoint x="1031.75" y="710" />
            </Array>
          </mxGeometry>
        </mxCell>
      </root>
    </mxGraphModel>
  </diagram>
</mxfile>
